<svg xmlns="http://www.w3.org/2000/svg" viewBox="-469 271 20 20"><g fill="none" stroke="#1b75bb" stroke-width="1.3" stroke-miterlimit="10"><path d="M-464.6 288.9h-2.5c-.7 0-1.1-.5-1.1-1.1v-7.3c0-.7.5-1.1 1.1-1.1h2.3c.7 0 1.1.5 1.1 1.1v7.3c.3.6-.2 1-.9 1.1z"/><path d="M-463.4 279.9h0s1.8-.1 3-2.1c.8-1.9.5-4.9.5-4.9s1.4-.3 2.2 0c.8.4 1.6 1 1.6 2.2v3.3h3.6c1 0 1.8.4 2.3 1 .5.5.5 1.8.4 2.2-.3.5-1 4.3-1.1 5.1-.1.8-.3 1.4-.8 1.8-.4.4-1.2.8-2.5.8h-7.5c-1.1 0-1.8-.5-1.9-1v-8.4h.2z" stroke-linecap="round" stroke-linejoin="round"/></g></svg>