<svg xmlns="http://www.w3.org/2000/svg" viewBox="-469 271 20 20"><g fill="none" stroke="#1b75bb" stroke-width="1.3" stroke-miterlimit="10"><path d="M-463.8 274.4v7.3c0 .5-.4 1.1-1.1 1.1h-2.3c-.5 0-1.1-.4-1.1-1.1v-7.3c0-.5.4-1.1 1.1-1.1h2.5c.5 0 1.1.4.9 1.1z"/><path d="M-463.6 282.2v-8.5c.3-.4.8-1 1.9-1h7.5c1.2 0 1.9.4 2.5.8.4.4.5 1 .8 1.8.1.8.8 4.5 1.1 5.1.1.4.1 1.6-.4 2.2-.5.5-1.4 1-2.3 1h-3.6v3.3c0 1.2-.8 1.8-1.6 2.2-.8.3-2.2 0-2.2 0s.3-3-.5-4.9c-1.3-1.8-3.2-2-3.2-2h0z" stroke-linecap="round" stroke-linejoin="round"/></g></svg>