<svg xmlns="http://www.w3.org/2000/svg" width="28" height="28" viewBox="0 0 28 28"><defs><style>.a{fill:#fff;}.b{fill:none;}</style></defs><g transform="translate(0 -0.411)"><path class="a" d="M7.218,20.847a1.99,1.99,0,0,0,2.176-.433l3-1.513a1.983,1.983,0,0,0,.585-1.412V12.281l4.971-7.6A3,3,0,0,0,15.472,0H3.489A3,3,0,0,0,1,4.668l4.982,7.613V19a1.99,1.99,0,0,0,1.233,1.845ZM2.606,2.529A.976.976,0,0,1,3.489,2H15.472a1,1,0,0,1,.814,1.577l-5.145,7.862c-.013.02-.021.041-.032.062a.933.933,0,0,0-.056.108,1.006,1.006,0,0,0-.03.1c-.009.03-.019.059-.026.09a1.031,1.031,0,0,0-.013.131c0,.02-.006.039-.006.059v5.506L7.983,19V11.983c0-.021,0-.041-.007-.062a.9.9,0,0,0-.013-.128c-.006-.033-.018-.064-.027-.1a.854.854,0,0,0-.029-.091,1,1,0,0,0-.061-.117c-.01-.018-.017-.036-.028-.053l-.007-.011h0L2.663,3.559a.978.978,0,0,1-.057-1.03Zm0,0" transform="translate(4.759 3.5)"/><rect class="b" width="28" height="28" transform="translate(0 0.411)"/></g></svg>