<?xml version="1.0" encoding="utf-8"?>
<!-- Generator: Adobe Illustrator 19.1.0, SVG Export Plug-In . SVG Version: 6.00 Build 0)  -->
<svg version="1.1" id="Layer_1" xmlns="http://www.w3.org/2000/svg" xmlns:xlink="http://www.w3.org/1999/xlink" x="0px" y="0px"
	 viewBox="-469 271 20 20" style="enable-background:new -469 271 20 20;" xml:space="preserve">
<style type="text/css">
	.st0{fill:none;stroke:#1B75BB;stroke-width:1.3;stroke-miterlimit:10;}
	.st1{fill:none;stroke:#1B75BB;stroke-width:1.3;stroke-linecap:round;stroke-linejoin:round;stroke-miterlimit:10;}
</style>
<g>
	<path class="st0" d="M-464.6,288.9h-2.5c-0.7,0-1.1-0.5-1.1-1.1v-7.3c0-0.7,0.5-1.1,1.1-1.1h2.3c0.7,0,1.1,0.5,1.1,1.1v7.3
		C-463.4,288.4-463.9,288.8-464.6,288.9z"/>
	<path class="st1" d="M-463.4,279.9L-463.4,279.9c0,0,1.8-0.1,3-2.1c0.8-1.9,0.5-4.9,0.5-4.9s1.4-0.3,2.2,0c0.8,0.4,1.6,1,1.6,2.2
		c0,1.1,0,3.3,0,3.3s2.7,0,3.6,0c1,0,1.8,0.4,2.3,1c0.5,0.5,0.5,1.8,0.4,2.2c-0.3,0.5-1,4.3-1.1,5.1c-0.1,0.8-0.3,1.4-0.8,1.8
		c-0.4,0.4-1.2,0.8-2.5,0.8c-0.7,0-6.7,0-7.5,0c-1.1,0-1.8-0.5-1.9-1v-8.4H-463.4z"/>
</g>
</svg>
