<?xml version="1.0" encoding="utf-8"?>
<!-- Generator: Adobe Illustrator 19.1.0, SVG Export Plug-In . SVG Version: 6.00 Build 0)  -->
<svg version="1.1" id="Layer_1" xmlns="http://www.w3.org/2000/svg" xmlns:xlink="http://www.w3.org/1999/xlink" x="0px" y="0px"
	 viewBox="-469 271 20 20" style="enable-background:new -469 271 20 20;" xml:space="preserve">
<style type="text/css">
	.st0{fill:none;stroke:#1B75BB;stroke-width:1.3;stroke-miterlimit:10;}
	.st1{fill:none;stroke:#1B75BB;stroke-width:1.3;stroke-linecap:round;stroke-linejoin:round;stroke-miterlimit:10;}
</style>
<g>
	<path class="st0" d="M-463.8,274.4v7.3c0,0.5-0.4,1.1-1.1,1.1h-2.3c-0.5,0-1.1-0.4-1.1-1.1v-7.3c0-0.5,0.4-1.1,1.1-1.1h2.5
		C-464.2,273.3-463.6,273.7-463.8,274.4z"/>
	<path class="st1" d="M-463.6,282.2v-8.5c0.3-0.4,0.8-1,1.9-1c0.8,0,6.9,0,7.5,0c1.2,0,1.9,0.4,2.5,0.8c0.4,0.4,0.5,1,0.8,1.8
		c0.1,0.8,0.8,4.5,1.1,5.1c0.1,0.4,0.1,1.6-0.4,2.2c-0.5,0.5-1.4,1-2.3,1c-0.8,0-3.6,0-3.6,0s0,2.2,0,3.3c0,1.2-0.8,1.8-1.6,2.2
		c-0.8,0.3-2.2,0-2.2,0s0.3-3-0.5-4.9C-461.7,282.4-463.6,282.2-463.6,282.2L-463.6,282.2L-463.6,282.2z"/>
</g>
</svg>
